<?xml version="1.0"?>
<svg xmlns="http://www.w3.org/2000/svg" id="Layer_5" enable-background="new 0 0 64 64" height="512px" viewBox="0 0 64 64" width="512px"><g><g><path d="m63 37h-5v-20c1.103 0 2-.897 2-2v-2c0-1.103-.897-2-2-2h-16.184c.112-.314.184-.648.184-1 0-1.654-1.346-3-3-3h-.146l.829-1.658c.358-.717.416-1.53.163-2.291-.253-.759-.789-1.376-1.511-1.738-.413-.205-.875-.313-1.334-.313-1.145 0-2.173.636-2.685 1.658l-1.702 3.404c-.201-.031-.404-.062-.614-.062-.215 0-.421.031-.627.063l-1.688-3.405c-.512-1.022-1.54-1.658-2.685-1.658-.459 0-.921.108-1.338.314-.719.36-1.254.978-1.507 1.736-.253.761-.196 1.574.163 2.291l.828 1.659h-.146c-1.654 0-3 1.346-3 3 0 .352.072.686.184 1h-16.184c-1.103 0-2 .897-2 2v2c0 1.103.897 2 2 2v20h-5v5.414l4 4v16.586h54v-16.586l4-4zm-2 4h-16v-2h16zm-16 4v-2h14.586l-2 2zm-12 6h2v10h-2zm-2 10h-2v-10h2zm-4-12v12h-2v-14h14v14h-2v-12zm-4-4v16h-2v-22h22v22h-2v-16zm-16.586 0-2-2h14.586v2zm20.359-26.876-.64-5.124h3.249c.703.615 1.612 1 2.618 1s1.914-.385 2.618-1h3.249l-.641 5.124c-.062.499-.488.876-.992.876h-4.234-4.234c-.504 0-.93-.377-.993-.876zm21.227 18.876v-4h4v4zm-6 0v-4h4v4zm-18-10h4v4h-4zm-2 4h-4v-4h4zm10-10h2v4h-4v-4zm2 6v4h-4v-4zm18 4h-4v-4h4zm-6 0h-4v-4h4zm-6 0h-4v-4h4zm-12 2v4h-4v-4zm2 0h4v4h-4zm6 0h4v4h-4zm16-8h-4v-4h4zm-6 0h-4v-4h4zm-6 0h-4v-4h.234 3.766zm-12.234-4h.234v4h-4v-4zm-5.766 4h-4v-4h4zm-6 0h-4v-4h4zm-4 2h4v4h-4zm0 6h4v4h-4zm6 0h4v4h-4zm38 4h-2v-18h-14.945c.071-.201.128-.409.156-.628l.172-1.372h16.617zm2-22h-18.367l.25-2h18.117zm-18-5c0 .552-.449 1-1 1h-3.142c.084-.322.142-.653.142-1s-.058-.678-.142-1h3.142c.551 0 1 .448 1 1zm-3.895-6.447c.239-.478.867-.685 1.338-.449.245.122.42.323.505.58.084.254.065.524-.054.764l-1.276 2.552h-2c-.052-.045-.105-.089-.16-.132zm-2.105 6.447c0 1.103-.897 2-2 2s-2-.897-2-2 .897-2 2-2 2 .897 2 2zm-7.894-5.553c-.12-.239-.139-.51-.054-.764.085-.257.26-.458.501-.578.483-.244 1.103-.03 1.342.447l1.656 3.308c-.057.046-.114.092-.169.14h-1.999zm-1.106 4.553h3.142c-.084.322-.142.653-.142 1s.058.678.142 1h-3.142c-.551 0-1-.448-1-1s.449-1 1-1zm-19 4h18.117l.25 2h-18.367zm2 4h16.617l.172 1.372c.027.219.084.427.156.628h-14.945v18h-2zm11 22v2h-16v-2zm-12 8h12v14h-2v-12h-8v12h-2zm8 14h-4v-10h4zm38 0h-4v-10h4zm2 0v-12h-8v12h-2v-14h12v14z" data-original="#000000" class="active-path" data-old_color="#000000" fill="#FFFFFF"/><path d="m35 41h2v2h-2z" data-original="#000000" class="active-path" data-old_color="#000000" fill="#FFFFFF"/><path d="m39 41h2v2h-2z" data-original="#000000" class="active-path" data-old_color="#000000" fill="#FFFFFF"/><path d="m31 41h2v2h-2z" data-original="#000000" class="active-path" data-old_color="#000000" fill="#FFFFFF"/><path d="m27 41h2v2h-2z" data-original="#000000" class="active-path" data-old_color="#000000" fill="#FFFFFF"/><path d="m23 41h2v2h-2z" data-original="#000000" class="active-path" data-old_color="#000000" fill="#FFFFFF"/></g></g> </svg>
