<?xml version="1.0"?>
<svg xmlns="http://www.w3.org/2000/svg" id="Layer_5" enable-background="new 0 0 64 64" height="512px" viewBox="0 0 64 64" width="512px"><g><g><path d="m61 61v-16h-2v-8h-6.498l-.556-10h-7.892l-1 18h-.726l-3.158-20h5.83v-6h-6v-4h-4v-4h-6v4h-4v4h-6v6h5.83l-4.105 26h-1.725v-11.236l-.105-.211c-.25-.501-.56-.954-.895-1.384v-13.169h-6v10.033c-.158-.009-.312-.033-.472-.033h-1.056c-.16 0-.314.024-.472.033v-6.033h-6v9.169c-.335.429-.644.883-.895 1.384l-.105.211v21.236h-2v2h62v-2zm-4-16h-6v-6h6zm-11.054-16h4.108l.444 8h-1.498v8h-3.943zm13.054 18v14h-2v-12h-10v12h-2.146l-2.211-14zm-4 14h-6v-10h6zm-29.093-30h3.093v4h-3.724zm3.093 6v4h-4.672l.632-4zm0 6v4h-5.619l.632-4zm2-18h2v28h-2zm4 18h4.988l.632 4h-5.62zm0-2v-4h4.04l.632 4zm3.724-6h-3.724v-4h3.093zm-3.724 20v6h-6v-6zm0-2v-4h5.935l1.895 12h-5.83v-8zm2.777-24h-2.777v-4h2.146zm-6.777-16h2v2h-2zm-4 4h10v2h-10zm-6 4h4 14 4v2h-22zm8 4v4h-2.777l.632-4zm-5.935 24h5.935v4h-2v8h-2v-10h-2.251zm-4.065 12h-4v-4h4zm-6-6v6h-2v-8h12v8h-2v-6zm4-14v2h-12v-2zm-1-14v2h-2v-2zm-2 4h2v5.322c-.619-.4-1.29-.714-2-.936zm-2.472 6c1.775 0 3.411.742 4.571 2h-10.198c1.16-1.258 2.796-2 4.571-2zm-3.528-6v4.386c-.71.222-1.381.535-2 .936v-5.322zm-3 14h12v6h-8v10h-4z" data-original="#000000" class="active-path" data-old_color="#000000" fill="#FFFFFF"/><path d="m48 4c0 .551-.449 1-1 1h-11c-1.654 0-3 1.346-3 3v1h2v-1c0-.551.449-1 1-1h11c1.654 0 3-1.346 3-3s-1.346-3-3-3h-15v2h15c.551 0 1 .449 1 1z" data-original="#000000" class="active-path" data-old_color="#000000" fill="#FFFFFF"/><path d="m17 7h11c.551 0 1 .449 1 1v1h2v-1c0-1.654-1.346-3-3-3h-11c-.551 0-1-.449-1-1s.449-1 1-1h11v-2h-11c-1.654 0-3 1.346-3 3s1.346 3 3 3z" data-original="#000000" class="active-path" data-old_color="#000000" fill="#FFFFFF"/></g></g> </svg>
